<?xml version="1.0" standalone="no"?>
<!DOCTYPE svg PUBLIC "-//W3C//DTD SVG 20010904//EN"
 "http://www.w3.org/TR/2001/REC-SVG-20010904/DTD/svg10.dtd">
<svg version="1.0" xmlns="http://www.w3.org/2000/svg"
 width="260.000000pt" height="260.000000pt" viewBox="0 0 260.000000 260.000000"
 preserveAspectRatio="xMidYMid meet">
<metadata>
Created by potrace 1.11, written by Peter Selinger 2001-2013
</metadata>
<g transform="translate(0.000000,260.000000) scale(0.100000,-0.100000)"
fill="#000000" stroke="none">
<path d="M538 2500 c-213 -45 -375 -200 -434 -415 -15 -53 -17 -144 -19 -750
-2 -413 1 -716 7 -755 21 -139 77 -249 174 -339 74 -69 130 -101 236 -132 71
-21 89 -22 763 -24 769 -2 806 0 930 59 78 37 177 122 224 192 41 63 78 165
89 249 5 39 8 370 7 755 -3 753 -1 730 -66 869 -61 131 -224 256 -379 292 -41
9 -237 12 -756 14 -610 1 -710 -1 -776 -15z m639 -484 c140 -30 254 -118 312
-240 31 -63 59 -86 109 -86 30 0 142 -62 190 -105 27 -25 64 -67 82 -95 38
-58 80 -178 80 -225 0 -45 9 -65 29 -65 22 0 99 -50 133 -86 48 -51 79 -135
79 -211 0 -141 -66 -240 -205 -309 l-50 -24 -580 0 c-635 0 -644 1 -734 59
-63 40 -104 85 -138 151 -27 50 -29 64 -29 160 0 95 3 110 27 156 15 28 38 65
52 82 35 40 112 89 172 107 77 23 83 30 51 55 -33 27 -64 84 -83 157 -38 144
10 300 126 406 67 62 133 97 215 113 78 16 89 16 162 0z"/>
</g>
</svg>
